<svg width="68" height="45" viewBox="0 0 68 45" fill="none" xmlns="http://www.w3.org/2000/svg">
<path d="M6.06044 24.0715H2.69714L1.84754 26.4914H0.740143L3.85734 18.0363H4.90034L8.01754 26.4914H6.91004L6.06044 24.0715ZM3.00774 23.175H5.74994L4.42574 19.4016H4.33194L3.00774 23.175ZM13.1063 22.1086C12.9422 21.4816 12.3856 20.9719 11.4774 20.9719C10.3407 20.9719 9.62584 21.8801 9.62584 23.3098C9.62584 24.7688 10.3524 25.6946 11.4774 25.6946C12.327 25.6946 12.9188 25.302 13.1063 24.5872H14.1258C13.9442 25.7474 13.0008 26.6028 11.4832 26.6028C9.71374 26.6028 8.58284 25.3196 8.58284 23.3098C8.58284 21.341 9.70784 20.0637 11.4773 20.0637C13.0125 20.0637 13.95 20.9836 14.1257 22.1086H13.1063ZM19.701 22.1086C19.5369 21.4816 18.9803 20.9719 18.0721 20.9719C16.9354 20.9719 16.2205 21.8801 16.2205 23.3098C16.2205 24.7688 16.9471 25.6946 18.0721 25.6946C18.9217 25.6946 19.5135 25.302 19.701 24.5872H20.7205C20.5389 25.7474 19.5955 26.6028 18.0779 26.6028C16.3084 26.6028 15.1775 25.3196 15.1775 23.3098C15.1775 21.341 16.3025 20.0637 18.072 20.0637C19.6072 20.0637 20.5447 20.9836 20.7204 22.1086H19.701ZM27.2806 24.8566C26.9876 25.9347 26.0033 26.6027 24.6204 26.6027C22.8684 26.6027 21.7727 25.3371 21.7727 23.339C21.7727 21.3527 22.886 20.0636 24.6204 20.0636C26.3255 20.0636 27.3626 21.2765 27.3626 23.2394V23.6261H22.8216V23.673C22.8743 24.921 23.5716 25.7121 24.6439 25.7121C25.4584 25.7121 26.0091 25.4133 26.2728 24.8566H27.2806ZM22.8216 22.8117H26.3021C26.2787 21.6926 25.6107 20.9543 24.6087 20.9543C23.6009 20.9543 22.8978 21.6926 22.8216 22.8117ZM31.0336 20.0637C32.3578 20.0637 33.2777 20.7199 33.4125 21.7571H32.4164C32.2816 21.2532 31.7894 20.9192 31.0277 20.9192C30.2777 20.9192 29.6918 21.3001 29.6918 21.8626C29.6918 22.2962 30.0434 22.5657 30.7875 22.7474L31.7602 22.9818C32.9497 23.2689 33.5239 23.7845 33.5239 24.6927C33.5239 25.8236 32.4282 26.6029 30.9927 26.6029C29.5865 26.6029 28.6197 25.9291 28.5083 24.8802H29.5454C29.7153 25.4134 30.2192 25.7532 31.0278 25.7532C31.8774 25.7532 32.4868 25.3489 32.4868 24.7688C32.4868 24.3352 32.1587 24.0422 31.4848 23.8782L30.4008 23.6145C29.2172 23.3274 28.6781 22.8176 28.6781 21.9036C28.6781 20.8547 29.6918 20.0637 31.0336 20.0637ZM37.0775 20.0637C38.4017 20.0637 39.3216 20.7199 39.4564 21.7571H38.4603C38.3255 21.2532 37.8333 20.9192 37.0716 20.9192C36.3216 20.9192 35.7357 21.3001 35.7357 21.8626C35.7357 22.2962 36.0873 22.5657 36.8314 22.7474L37.8041 22.9818C38.9936 23.2689 39.5678 23.7845 39.5678 24.6927C39.5678 25.8236 38.4721 26.6029 37.0366 26.6029C35.6304 26.6029 34.6636 25.9291 34.5522 24.8802H35.5893C35.7592 25.4134 36.2631 25.7532 37.0717 25.7532C37.9213 25.7532 38.5307 25.3489 38.5307 24.7688C38.5307 24.3352 38.2026 24.0422 37.5287 23.8782L36.4447 23.6145C35.2611 23.3274 34.722 22.8176 34.722 21.9036C34.722 20.8547 35.7357 20.0637 37.0775 20.0637ZM40.7132 23.3332C40.7132 21.3 41.8265 20.0637 43.6253 20.0637C45.4241 20.0637 46.5374 21.3 46.5374 23.3332C46.5374 25.3605 45.4241 26.6027 43.6253 26.6027C41.8265 26.6027 40.7132 25.3605 40.7132 23.3332ZM45.4945 23.3332C45.4945 21.8332 44.8207 20.9719 43.6254 20.9719C42.4301 20.9719 41.7563 21.8332 41.7563 23.3332C41.7563 24.8273 42.4301 25.6945 43.6254 25.6945C44.8207 25.6945 45.4945 24.8273 45.4945 23.3332ZM47.9999 20.175H48.9608V21.1125H49.0546C49.2421 20.4973 49.9687 20.0637 50.8066 20.0637C50.9707 20.0637 51.1816 20.0754 51.3105 20.093V21.1008C51.2285 21.0774 50.8652 21.0422 50.666 21.0422C49.7051 21.0422 49.0078 21.6867 49.0078 22.5774V26.4915H48L47.9999 20.175ZM52.2743 18.2531C52.2743 17.8664 52.5907 17.55 52.9774 17.55C53.3641 17.55 53.6805 17.8664 53.6805 18.2531C53.6805 18.6398 53.3641 18.9562 52.9774 18.9562C52.5907 18.9562 52.2743 18.6398 52.2743 18.2531ZM52.4735 20.175H53.4813V26.4914H52.4735V20.175ZM60.4745 24.8566C60.1815 25.9347 59.1972 26.6027 57.8143 26.6027C56.0623 26.6027 54.9666 25.3371 54.9666 23.339C54.9666 21.3527 56.0799 20.0636 57.8143 20.0636C59.5194 20.0636 60.5565 21.2765 60.5565 23.2394V23.6261H56.0155V23.673C56.0682 24.921 56.7655 25.7121 57.8378 25.7121C58.6523 25.7121 59.203 25.4133 59.4667 24.8566H60.4745ZM56.0155 22.8117H59.496C59.4726 21.6926 58.8046 20.9543 57.8026 20.9543C56.7948 20.9543 56.0917 21.6926 56.0155 22.8117ZM64.2274 20.0637C65.5516 20.0637 66.4715 20.7199 66.6063 21.7571H65.6102C65.4754 21.2532 64.9832 20.9192 64.2215 20.9192C63.4715 20.9192 62.8856 21.3001 62.8856 21.8626C62.8856 22.2962 63.2372 22.5657 63.9813 22.7474L64.954 22.9818C66.1435 23.2689 66.7177 23.7845 66.7177 24.6927C66.7177 25.8236 65.622 26.6029 64.1865 26.6029C62.7803 26.6029 61.8135 25.9291 61.7021 24.8802H62.7392C62.9091 25.4134 63.413 25.7532 64.2216 25.7532C65.0712 25.7532 65.6806 25.3489 65.6806 24.7688C65.6806 24.3352 65.3525 24.0422 64.6786 23.8782L63.5946 23.6145C62.411 23.3274 61.8719 22.8176 61.8719 21.9036C61.8719 20.8547 62.8856 20.0637 64.2274 20.0637Z" fill="black" fill-opacity="0.8"/>
</svg>
