<svg width="78" height="45" viewBox="0 0 78 45" fill="none" xmlns="http://www.w3.org/2000/svg">
<path d="M0.260132 17.9863H5.49843V18.9355H1.31483V21.6484H5.28163V22.5859H1.31483V25.4921H5.49843V26.4413H0.260132V17.9863ZM7.15953 20.125H8.17903V21.0742H8.27283C8.58923 20.4062 9.18103 20.0137 10.1126 20.0137C11.5306 20.0137 12.3216 20.8516 12.3216 22.3516V26.4414H11.3021V22.5976C11.3021 21.4609 10.8333 20.916 9.82553 20.916C8.81773 20.916 8.17903 21.5957 8.17903 22.7031V26.4414H7.15953V20.125ZM14.4398 24.8008V20.9688H13.4437V20.125H14.4398V18.4902H15.4945V20.125H16.8773V20.9688H15.4945V24.543C15.4945 25.2871 15.7523 25.586 16.4086 25.586C16.5902 25.586 16.6898 25.5801 16.8774 25.5626V26.4298C16.6782 26.465 16.4848 26.4884 16.2856 26.4884C14.9847 26.4883 14.4398 26.0078 14.4398 24.8008ZM17.8763 23.3066V23.3007C17.8763 21.3495 18.9896 20.0136 20.7064 20.0136C22.4232 20.0136 23.4662 21.2909 23.4662 23.1777V23.5761H18.9193C18.9486 24.8827 19.6693 25.6445 20.7943 25.6445C21.6498 25.6445 22.1771 25.2402 22.347 24.8593L22.3704 24.8066H23.3899L23.3782 24.8535C23.1614 25.709 22.2591 26.5527 20.7708 26.5527C18.9662 26.5527 17.8763 25.2871 17.8763 23.3066ZM18.9369 22.7617H22.4291C22.3236 21.5137 21.6322 20.9219 20.7006 20.9219C19.763 20.9219 19.0482 21.5605 18.9369 22.7617ZM24.9281 20.125H25.9476V21.0625H26.0414C26.2816 20.4004 26.8734 20.0137 27.7289 20.0137C27.9223 20.0137 28.1391 20.0371 28.2387 20.0547V21.0449C28.0278 21.0097 27.8344 20.9863 27.6117 20.9863C26.639 20.9863 25.9476 21.6015 25.9476 22.5273V26.4414H24.9281V20.125ZM29.8939 24.8008V20.9688H28.8978V20.125H29.8939V18.4902H30.9486V20.125H32.3314V20.9688H30.9486V24.543C30.9486 25.2871 31.2064 25.586 31.8627 25.586C32.0443 25.586 32.1439 25.5801 32.3315 25.5626V26.4298C32.1323 26.465 31.9389 26.4884 31.7397 26.4884C30.4388 26.4883 29.8939 26.0078 29.8939 24.8008ZM33.3597 24.6777V24.666C33.3597 23.541 34.1917 22.8906 35.6624 22.8027L37.4729 22.6914V22.1172C37.4729 21.3379 36.9983 20.916 36.0549 20.916C35.299 20.916 34.801 21.1972 34.6369 21.6894L34.631 21.707H33.6115L33.6174 21.6718C33.7815 20.6816 34.7424 20.0136 36.0901 20.0136C37.6311 20.0136 38.4924 20.8046 38.4924 22.1171V26.4413H37.4729V25.5097H37.3791C36.9807 26.1835 36.3186 26.5527 35.4689 26.5527C34.2679 26.5527 33.3597 25.8262 33.3597 24.6777ZM35.68 25.668C36.7171 25.668 37.473 24.9883 37.473 24.086V23.5118L35.7855 23.6173C34.8246 23.6759 34.4027 24.0157 34.4027 24.6427V24.6544C34.4027 25.293 34.9476 25.668 35.68 25.668ZM40.0726 18.2031C40.0726 17.8164 40.389 17.5 40.7757 17.5C41.1624 17.5 41.4788 17.8164 41.4788 18.2031C41.4788 18.5898 41.1624 18.9062 40.7757 18.9062C40.389 18.9062 40.0726 18.5898 40.0726 18.2031ZM40.2601 20.125H41.2796V26.4414H40.2601V20.125ZM43.0814 20.125H44.1009V21.0742H44.1947C44.5111 20.4062 45.1029 20.0137 46.0345 20.0137C47.4525 20.0137 48.2435 20.8516 48.2435 22.3516V26.4414H47.224V22.5976C47.224 21.4609 46.7552 20.916 45.7474 20.916C44.7396 20.916 44.1009 21.5957 44.1009 22.7031V26.4414H43.0814V20.125ZM49.9632 20.125H50.9827V21.0859H51.0765C51.3577 20.4062 51.9554 20.0136 52.7816 20.0136C53.6371 20.0136 54.2347 20.4648 54.5277 21.121H54.6215C54.9613 20.453 55.682 20.0136 56.5551 20.0136C57.8442 20.0136 58.5649 20.7519 58.5649 22.0761V26.4413H57.5454V22.3104C57.5454 21.3788 57.1177 20.9159 56.227 20.9159C55.3481 20.9159 54.768 21.578 54.768 22.3807V26.4412H53.7485V22.1521C53.7485 21.4021 53.2329 20.9158 52.436 20.9158C51.6098 20.9158 50.9829 21.6365 50.9829 22.5271V26.4412H49.9634L49.9632 20.125ZM59.9681 23.3066V23.3007C59.9681 21.3495 61.0814 20.0136 62.7982 20.0136C64.515 20.0136 65.558 21.2909 65.558 23.1777V23.5761H61.0111C61.0404 24.8827 61.7611 25.6445 62.8861 25.6445C63.7416 25.6445 64.2689 25.2402 64.4388 24.8593L64.4622 24.8066H65.4817L65.4701 24.8535C65.2533 25.709 64.351 26.5527 62.8627 26.5527C61.058 26.5527 59.9681 25.2871 59.9681 23.3066ZM61.0287 22.7617H64.5209C64.4154 21.5137 63.724 20.9219 62.7924 20.9219C61.8548 20.9219 61.14 21.5605 61.0287 22.7617ZM67.0199 20.125H68.0394V21.0742H68.1332C68.4496 20.4062 69.0414 20.0137 69.973 20.0137C71.391 20.0137 72.182 20.8516 72.182 22.3516V26.4414H71.1625V22.5976C71.1625 21.4609 70.6937 20.916 69.6859 20.916C68.6781 20.916 68.0394 21.5957 68.0394 22.7031V26.4414H67.0199V20.125ZM74.3001 24.8008V20.9688H73.304V20.125H74.3001V18.4902H75.3548V20.125H76.7376V20.9688H75.3548V24.543C75.3548 25.2871 75.6126 25.586 76.2689 25.586C76.4505 25.586 76.5501 25.5801 76.7377 25.5626V26.4298C76.5385 26.465 76.3451 26.4884 76.1459 26.4884C74.8451 26.4883 74.3001 26.0078 74.3001 24.8008Z" fill="black" fill-opacity="0.8"/>
</svg>
