<svg width="66" height="45" viewBox="0 0 66 45" fill="none" xmlns="http://www.w3.org/2000/svg">
<path d="M4.49562 26.5V18.9941H1.77102V18.0449H8.27492V18.9941H5.55032V26.5H4.49562ZM12.227 26.5L9.10982 18.0449H10.2172L12.7016 25.1347H12.7954L15.2798 18.0449H16.3872L13.27 26.5H12.227ZM26.208 25.6562C25.4873 26.289 24.4971 26.6582 23.4717 26.6582C21.7901 26.6582 20.6123 25.6621 20.6123 24.2441C20.6123 23.2421 21.1572 22.4804 22.2881 21.8828C22.3643 21.8476 22.5225 21.7656 22.6162 21.7187C21.8369 20.8984 21.5557 20.3535 21.5557 19.7382C21.5557 18.6542 22.4756 17.8456 23.7119 17.8456C24.9599 17.8456 25.8681 18.6425 25.8681 19.7499C25.8681 20.6171 25.3466 21.2499 24.04 21.9354L26.1552 24.2088C26.4189 23.6815 26.5536 22.99 26.5536 21.9354V21.7889H27.538V21.9412C27.538 23.2537 27.3036 24.2088 26.8407 24.9236L28.3115 26.5H26.9873L26.208 25.6562ZM21.667 24.1738C21.667 25.123 22.4346 25.7676 23.5654 25.7676C24.333 25.7676 25.124 25.4629 25.5869 24.9766L23.1963 22.3633C23.1318 22.3867 22.9795 22.4629 22.8975 22.5039C22.083 22.9258 21.667 23.5117 21.667 24.1738ZM24.8779 19.7852C24.8779 19.129 24.4033 18.6836 23.7177 18.6836C23.0439 18.6836 22.5634 19.1406 22.5634 19.7969C22.5634 20.2657 22.8036 20.6758 23.4716 21.3379C24.5029 20.8105 24.8779 20.3887 24.8779 19.7852ZM38.3955 26.5V22.6504H33.7549V26.5H32.7002V18.0449H33.7549V21.7011H38.3955V18.0449H39.4502V26.5H38.3955ZM41.041 23.3418C41.041 21.3086 42.1543 20.0723 43.9531 20.0723C45.7519 20.0723 46.8652 21.3086 46.8652 23.3418C46.8652 25.3691 45.7519 26.6113 43.9531 26.6113C42.1543 26.6113 41.041 25.3691 41.041 23.3418ZM45.8222 23.3418C45.8222 21.8418 45.1484 20.9805 43.9531 20.9805C42.7578 20.9805 42.084 21.8418 42.084 23.3418C42.084 24.8359 42.7578 25.7031 43.9531 25.7031C45.1484 25.7031 45.8222 24.8359 45.8222 23.3418ZM48.3276 20.1836H49.2885V21.1797H49.3823C49.6694 20.4766 50.3022 20.0723 51.146 20.0723C52.0015 20.0723 52.5991 20.5235 52.8921 21.1797H52.9859C53.3257 20.5117 54.0464 20.0723 54.9195 20.0723C56.2086 20.0723 56.9293 20.8106 56.9293 22.1348V26.5H55.9215V22.3691C55.9215 21.4375 55.482 20.9804 54.5914 20.9804C53.7125 20.9804 53.1266 21.6366 53.1266 22.4394V26.5H52.1188V22.2109C52.1188 21.4609 51.5973 20.9804 50.8004 20.9804C49.9742 20.9804 49.3356 21.6952 49.3356 22.5859V26.5H48.3278L48.3276 20.1836ZM63.8403 24.8652C63.5473 25.9433 62.563 26.6113 61.1801 26.6113C59.4281 26.6113 58.3324 25.3457 58.3324 23.3476C58.3324 21.3613 59.4457 20.0722 61.1801 20.0722C62.8852 20.0722 63.9223 21.2851 63.9223 23.248V23.6347H59.3813V23.6816C59.434 24.9296 60.1313 25.7207 61.2036 25.7207C62.0181 25.7207 62.5688 25.4219 62.8325 24.8652H63.8403ZM59.3813 22.8203H62.8618C62.8384 21.7012 62.1704 20.9629 61.1684 20.9629C60.1606 20.9629 59.4575 21.7012 59.3813 22.8203Z" fill="black" fill-opacity="0.8"/>
</svg>
