<svg width="45" height="45" viewBox="0 0 45 45" fill="none" xmlns="http://www.w3.org/2000/svg">
<path d="M42.6608 18.5337V20.1687H44.0667V21.0127H42.6608V24.5867C42.6608 25.3307 42.9417 25.6467 43.5977 25.6467C43.7797 25.6467 43.8797 25.6407 44.0667 25.6237V26.4727C43.8677 26.5087 43.6748 26.5317 43.4748 26.5317C42.1748 26.5317 41.6527 26.0517 41.6527 24.8447V21.0127H40.6338V20.1687H41.6527V18.5337H42.6608ZM36.5298 20.1687H37.4907V21.1057H37.5837C37.7717 20.4907 38.4978 20.0567 39.3358 20.0567C39.4998 20.0567 39.7107 20.0687 39.8397 20.0867V21.0947C39.7577 21.0707 39.3948 21.0357 39.1958 21.0357C38.2348 21.0357 37.5368 21.6797 37.5368 22.5707V26.4847H36.5298V20.1687ZM34.0667 23.3267C34.0667 21.8267 33.3928 20.9657 32.1978 20.9657C31.0028 20.9657 30.3288 21.8267 30.3288 23.3267C30.3288 24.8207 31.0028 25.6877 32.1978 25.6877C33.3928 25.6877 34.0667 24.8207 34.0667 23.3267ZM29.2858 23.3267C29.2858 21.2937 30.3988 20.0567 32.1978 20.0567C33.9968 20.0567 35.1097 21.2937 35.1097 23.3267C35.1097 25.3537 33.9968 26.5967 32.1978 26.5967C30.3988 26.5967 29.2858 25.3537 29.2858 23.3267ZM27.1778 23.3267C27.1778 21.8497 26.4858 20.9657 25.3318 20.9657C24.1888 20.9657 23.4688 21.8737 23.4688 23.3267C23.4688 24.7737 24.1888 25.6877 25.3258 25.6877C26.4858 25.6877 27.1778 24.8037 27.1778 23.3267ZM28.2208 23.3267C28.2208 25.3017 27.1718 26.5967 25.5658 26.5967C24.6638 26.5967 23.9368 26.2037 23.5918 25.5357H23.4978V28.5947H22.4898V20.1687H23.4508V21.2227H23.5448C23.9488 20.4967 24.7048 20.0567 25.5658 20.0567C27.1778 20.0567 28.2208 21.3407 28.2208 23.3267ZM20.1728 23.3267C20.1728 21.8497 19.4818 20.9657 18.3278 20.9657C17.1848 20.9657 16.4638 21.8737 16.4638 23.3267C16.4638 24.7737 17.1848 25.6877 18.3218 25.6877C19.4818 25.6877 20.1728 24.8037 20.1728 23.3267ZM21.2158 23.3267C21.2158 25.3017 20.1668 26.5967 18.5618 26.5967C17.6598 26.5967 16.9328 26.2037 16.5868 25.5357H16.4938V28.5947H15.4858V20.1687H16.4468V21.2227H16.5398C16.9448 20.4967 17.7008 20.0567 18.5618 20.0567C20.1728 20.0567 21.2158 21.3407 21.2158 23.3267ZM13.5708 26.4847H12.6098V25.4947H12.5158C12.1998 26.1977 11.5258 26.5967 10.5588 26.5967C9.14075 26.5967 8.40275 25.7527 8.40275 24.2587V20.1687H9.41075V24.0127C9.41075 25.1487 9.83275 25.6767 10.8408 25.6767C11.9538 25.6767 12.5628 25.0137 12.5628 23.9067V20.1687H13.5708V26.4847ZM1.88075 24.2757C2.00975 25.1607 2.85275 25.7227 4.05475 25.7227C5.19075 25.7227 6.02875 25.1077 6.02875 24.2697C6.02875 23.5497 5.50175 23.0927 4.33575 22.7997L3.25175 22.5177C1.72275 22.1317 1.05975 21.4397 1.05975 20.2387C1.05975 18.8037 2.26175 17.8307 4.04875 17.8307C5.68275 17.8307 6.90175 18.8037 6.98975 20.1687H5.92975C5.78275 19.3017 5.06775 18.7857 4.01375 18.7857C2.88875 18.7857 2.14375 19.3477 2.14375 20.2037C2.14375 20.8657 2.60675 21.2467 3.77275 21.5457L4.65775 21.7797C6.40975 22.2197 7.11275 22.8987 7.11275 24.1407C7.11275 25.6937 5.88875 26.6837 3.95475 26.6837C2.16175 26.6837 0.925751 25.7347 0.813751 24.2757H1.88075Z" fill="black" fill-opacity="0.8"/>
</svg>
