<svg width="8" height="22" viewBox="0 0 8 22" fill="none" xmlns="http://www.w3.org/2000/svg">
<g clip-path="url(#clip0_1_122)">
<path d="M0.945654 15.3755C0.775995 15.3755 0.630964 15.3167 0.510561 15.199C0.390158 15.0813 0.329956 14.9377 0.329956 14.768C0.329956 14.5983 0.392894 14.4506 0.51877 14.3247L3.83533 11.0163L0.51877 7.70799C0.392894 7.58212 0.329956 7.43435 0.329956 7.26469C0.329956 7.09503 0.390158 6.95137 0.510561 6.8337C0.630964 6.71603 0.775995 6.6572 0.945654 6.6572C1.10437 6.6572 1.24666 6.71467 1.37254 6.8296L5.11598 10.5566C5.24733 10.677 5.31301 10.8303 5.31301 11.0163C5.31301 11.1915 5.24733 11.3447 5.11598 11.4761L1.37254 15.2031C1.25761 15.318 1.11531 15.3755 0.945654 15.3755Z" fill="#0066CC"/>
</g>
<defs>
<clipPath id="clip0_1_122">
<rect width="7.13" height="21" fill="white" transform="matrix(1 0 0 -1 0.329956 21.5)"/>
</clipPath>
</defs>
</svg>
