<svg width="10" height="30" viewBox="0 0 10 30" fill="none" xmlns="http://www.w3.org/2000/svg">
<g clip-path="url(#clip0_1_171)">
<path d="M1.09414 20.1417C0.880817 20.1417 0.698458 20.0677 0.547066 19.9198C0.395673 19.7718 0.319977 19.5912 0.319977 19.3779C0.319977 19.1646 0.399114 18.9788 0.557388 18.8205L4.72757 14.6606L0.557388 10.5008C0.399114 10.3425 0.319977 10.1567 0.319977 9.94337C0.319977 9.73004 0.395673 9.5494 0.547066 9.40145C0.698458 9.2535 0.880817 9.17953 1.09414 9.17953C1.29371 9.17953 1.47262 9.25178 1.6309 9.39629L6.33783 14.0826C6.50299 14.234 6.58556 14.4267 6.58556 14.6606C6.58556 14.8808 6.50299 15.0735 6.33783 15.2387L1.6309 19.925C1.48639 20.0695 1.30747 20.1417 1.09414 20.1417Z" fill="#0066CC"/>
</g>
<defs>
<clipPath id="clip0_1_171">
<rect width="9.51" height="29" fill="white" transform="matrix(1 0 0 -1 0.319977 29.14)"/>
</clipPath>
</defs>
</svg>
