<svg width="9" height="22" viewBox="0 0 9 22" fill="none" xmlns="http://www.w3.org/2000/svg">
<g clip-path="url(#clip0_1_134)">
<path d="M1.52567 15.2654C1.35601 15.2654 1.21098 15.2065 1.09058 15.0889C0.970175 14.9712 0.909973 14.8276 0.909973 14.6579C0.909973 14.4882 0.972911 14.3405 1.09879 14.2146L4.41535 10.9062L1.09879 7.59788C0.972911 7.47201 0.909973 7.32424 0.909973 7.15458C0.909973 6.98492 0.970175 6.84126 1.09058 6.72359C1.21098 6.60593 1.35601 6.54709 1.52567 6.54709C1.68438 6.54709 1.82668 6.60456 1.95256 6.71949L5.696 10.4465C5.82735 10.5669 5.89302 10.7202 5.89302 10.9062C5.89302 11.0814 5.82735 11.2346 5.696 11.366L1.95256 15.093C1.83763 15.2079 1.69533 15.2654 1.52567 15.2654Z" fill="#0066CC"/>
</g>
<defs>
<clipPath id="clip0_1_134">
<rect width="7.13" height="21" fill="white" transform="matrix(1 0 0 -1 0.909973 21.3899)"/>
</clipPath>
</defs>
</svg>
