<svg width="8" height="22" viewBox="0 0 8 22" fill="none" xmlns="http://www.w3.org/2000/svg">
<g clip-path="url(#clip0_1_90)">
<path d="M1.38566 15.2654C1.216 15.2654 1.07097 15.2065 0.950563 15.0889C0.83016 14.9712 0.769958 14.8276 0.769958 14.6579C0.769958 14.4882 0.832897 14.3405 0.958773 14.2146L4.27533 10.9062L0.958773 7.59788C0.832897 7.47201 0.769958 7.32424 0.769958 7.15458C0.769958 6.98492 0.83016 6.84126 0.950563 6.72359C1.07097 6.60593 1.216 6.54709 1.38566 6.54709C1.54437 6.54709 1.68666 6.60456 1.81254 6.71949L5.55599 10.4465C5.68734 10.5669 5.75301 10.7202 5.75301 10.9062C5.75301 11.0814 5.68734 11.2346 5.55599 11.366L1.81254 15.093C1.69761 15.2079 1.55532 15.2654 1.38566 15.2654Z" fill="#2997FF"/>
</g>
<defs>
<clipPath id="clip0_1_90">
<rect width="7.13" height="21" fill="white" transform="matrix(1 0 0 -1 0.769958 21.3899)"/>
</clipPath>
</defs>
</svg>
