<svg width="16" height="45" viewBox="0 0 16 45" fill="none" xmlns="http://www.w3.org/2000/svg">
<g clip-path="url(#clip0_1_400)">
<path d="M14.988 27.702L11.118 23.832C11.819 22.903 12.24 21.751 12.24 20.5C12.24 17.44 9.75101 14.95 6.69001 14.95C3.63001 14.95 1.14001 17.44 1.14001 20.5C1.14001 23.561 3.63001 26.05 6.69001 26.05C7.94101 26.05 9.09301 25.629 10.022 24.928L13.892 28.798C14.043 28.949 14.242 29.026 14.44 29.026C14.638 29.026 14.836 28.95 14.988 28.798C15.291 28.495 15.291 28.005 14.988 27.702ZM2.24001 20.5C2.24001 18.046 4.23701 16.05 6.69001 16.05C9.14401 16.05 11.14 18.047 11.14 20.5C11.14 22.953 9.14401 24.95 6.69001 24.95C4.23601 24.95 2.24001 22.954 2.24001 20.5Z" fill="black" fill-opacity="0.8"/>
</g>
<defs>
<clipPath id="clip0_1_400">
<rect width="15" height="44" fill="white" transform="translate(0.690002 0.5)"/>
</clipPath>
</defs>
</svg>
