<svg width="15" height="45" viewBox="0 0 15 45" fill="none" xmlns="http://www.w3.org/2000/svg">
<g clip-path="url(#clip0_1_403)">
<path d="M12.1835 16.5283H11.163C11.0536 15.7173 10.6573 14.9723 10.0458 14.4284C9.43435 13.8845 8.64826 13.5776 7.83002 13.5635C7.01178 13.5776 6.22568 13.8845 5.61423 14.4284C5.00277 14.9723 4.60642 15.7173 4.49702 16.5283H3.47702C2.9158 16.5287 2.37767 16.7517 1.98076 17.1485C1.58385 17.5452 1.3606 18.0833 1.36002 18.6445V26.36C1.36052 26.9211 1.58362 27.4592 1.98036 27.856C2.3771 28.2528 2.91507 28.4761 3.47622 28.4767H12.1832C12.7445 28.4762 13.2826 28.2531 13.6795 27.8562C14.0763 27.4594 14.2995 26.9212 14.3 26.36V18.6445C14.2994 18.0834 14.0762 17.5454 13.6794 17.1487C13.2826 16.7519 12.7446 16.5288 12.1835 16.5283ZM7.83002 14.6631C8.35743 14.6746 8.86513 14.8657 9.2692 15.2048C9.67327 15.544 9.94949 16.0109 10.0522 16.5283H5.60782C5.71054 16.0109 5.98677 15.544 6.39083 15.2048C6.7949 14.8657 7.30261 14.6746 7.83002 14.6631ZM13.2 26.36C13.1997 26.6296 13.0925 26.888 12.902 27.0787C12.7114 27.2694 12.453 27.3767 12.1834 27.3771H3.47652C3.20696 27.3766 2.94858 27.2693 2.75803 27.0787C2.56748 26.888 2.46031 26.6296 2.46002 26.36V18.6445C2.46033 18.375 2.56754 18.1166 2.75812 17.926C2.9487 17.7354 3.20709 17.6282 3.47662 17.6279H12.1836C12.4531 17.6283 12.7114 17.7355 12.902 17.9261C13.0925 18.1167 13.1997 18.375 13.2 18.6445V26.36Z" fill="black" fill-opacity="0.8"/>
</g>
<defs>
<clipPath id="clip0_1_403">
<rect width="14" height="44" fill="white" transform="translate(0.830017 0.5)"/>
</clipPath>
</defs>
</svg>
